<svg aria-hidden="true" style="position: absolute; width: 0; height: 0; overflow: hidden;" version="1.1" xmlns="http://www.w3.org/2000/svg" xmlns:xlink="http://www.w3.org/1999/xlink">
<defs>
<symbol id="icon-trash-2" viewBox="0 0 24 24">
<path d="M18 7v13c0 0.276-0.111 0.525-0.293 0.707s-0.431 0.293-0.707 0.293h-10c-0.276 0-0.525-0.111-0.707-0.293s-0.293-0.431-0.293-0.707v-13zM17 5v-1c0-0.828-0.337-1.58-0.879-2.121s-1.293-0.879-2.121-0.879h-4c-0.828 0-1.58 0.337-2.121 0.879s-0.879 1.293-0.879 2.121v1h-4c-0.552 0-1 0.448-1 1s0.448 1 1 1h1v13c0 0.828 0.337 1.58 0.879 2.121s1.293 0.879 2.121 0.879h10c0.828 0 1.58-0.337 2.121-0.879s0.879-1.293 0.879-2.121v-13h1c0.552 0 1-0.448 1-1s-0.448-1-1-1zM9 5v-1c0-0.276 0.111-0.525 0.293-0.707s0.431-0.293 0.707-0.293h4c0.276 0 0.525 0.111 0.707 0.293s0.293 0.431 0.293 0.707v1zM9 11v6c0 0.552 0.448 1 1 1s1-0.448 1-1v-6c0-0.552-0.448-1-1-1s-1 0.448-1 1zM13 11v6c0 0.552 0.448 1 1 1s1-0.448 1-1v-6c0-0.552-0.448-1-1-1s-1 0.448-1 1z"></path>
</symbol>
<symbol id="icon-trash" viewBox="0 0 24 24">
<path d="M18 7v13c0 0.276-0.111 0.525-0.293 0.707s-0.431 0.293-0.707 0.293h-10c-0.276 0-0.525-0.111-0.707-0.293s-0.293-0.431-0.293-0.707v-13zM17 5v-1c0-0.828-0.337-1.58-0.879-2.121s-1.293-0.879-2.121-0.879h-4c-0.828 0-1.58 0.337-2.121 0.879s-0.879 1.293-0.879 2.121v1h-4c-0.552 0-1 0.448-1 1s0.448 1 1 1h1v13c0 0.828 0.337 1.58 0.879 2.121s1.293 0.879 2.121 0.879h10c0.828 0 1.58-0.337 2.121-0.879s0.879-1.293 0.879-2.121v-13h1c0.552 0 1-0.448 1-1s-0.448-1-1-1zM9 5v-1c0-0.276 0.111-0.525 0.293-0.707s0.431-0.293 0.707-0.293h4c0.276 0 0.525 0.111 0.707 0.293s0.293 0.431 0.293 0.707v1z"></path>
</symbol>
<symbol id="icon-tv" viewBox="0 0 32 32">
<path d="M22.17 8.624c-2.707-0.557-5.455-0.839-8.165-0.839s-5.457 0.282-8.165 0.839c-0.35 0.072-0.636 0.326-0.749 0.667-1.442 4.381-1.442 8.823 0 13.204 0.112 0.34 0.398 0.594 0.749 0.666 2.708 0.556 5.455 0.839 8.165 0.839 2.709 0 5.458-0.283 8.165-0.84 0.352-0.072 0.637-0.326 0.75-0.666 1.441-4.381 1.441-8.823 0-13.204-0.113-0.34-0.399-0.594-0.75-0.666zM21.969 22.182c-5.309 1.090-10.619 1.090-15.927 0-1.381-4.193-1.381-8.385 0-12.579 5.309-1.091 10.619-1.091 15.927 0 1.381 4.193 1.381 8.385 0 12.579zM30.854 6.32c-0.193-0.814-0.875-1.422-1.705-1.522-4.36-0.53-8.782-0.798-13.144-0.798s-8.783 0.268-13.143 0.797c-0.83 0.101-1.511 0.708-1.704 1.523-1.529 6.423-1.529 12.936 0 19.36 0.193 0.814 0.874 1.422 1.704 1.521 2.101 0.256 4.216 0.443 6.331 0.576-0.114 0.073-0.188 0.147-0.188 0.223 0 0.553 3.134 1 7 1s7-0.447 7-1c0-0.076-0.074-0.15-0.188-0.223 2.115-0.133 4.23-0.32 6.33-0.576 0.83-0.1 1.512-0.707 1.705-1.521 1.531-6.424 1.531-12.937 0.002-19.36zM28.908 25.217c-8.602 1.043-17.204 1.043-25.805 0-1.463-6.145-1.463-12.29 0-18.434 8.602-1.044 17.204-1.044 25.805 0 1.463 6.144 1.463 12.289 0 18.434zM26.506 12c0.828 0 1.5-0.672 1.5-1.5s-0.672-1.5-1.5-1.5-1.5 0.672-1.5 1.5 0.672 1.5 1.5 1.5zM26.506 10c0.275 0 0.5 0.225 0.5 0.5s-0.225 0.5-0.5 0.5-0.5-0.225-0.5-0.5 0.224-0.5 0.5-0.5zM27.506 22c0.275 0 0.5 0.223 0.5 0.5 0 0.275-0.225 0.5-0.5 0.5h-3c-0.277 0-0.5-0.225-0.5-0.5 0-0.277 0.223-0.5 0.5-0.5h3zM28.506 19c0.275 0 0.5 0.223 0.5 0.5 0 0.275-0.225 0.5-0.5 0.5h-3c-0.277 0-0.5-0.225-0.5-0.5 0-0.277 0.223-0.5 0.5-0.5h3zM28.506 16c0.275 0 0.5 0.224 0.5 0.5s-0.225 0.5-0.5 0.5h-3c-0.277 0-0.5-0.224-0.5-0.5s0.223-0.5 0.5-0.5h3zM13.505 11.804c0.276-0.011 0.5 0.204 0.5 0.48s-0.225 0.508-0.5 0.518l-3.749 0.257c-0.273 0.028-0.527 0.274-0.564 0.546l-0.167 1.895c-0.011 0.275-0.245 0.5-0.518 0.5s-0.487-0.225-0.473-0.5l0.305-2.786c0.046-0.272 0.307-0.52 0.58-0.551l4.586-0.359z"></path>
</symbol>
<symbol id="icon-alarm" viewBox="0 0 32 32">
<path d="M27.013 25.278v1.825h-22.026v-1.825c0 0-0.471-1.009 2.085-3.429 2.554-2.419 2.218-8.672 2.218-12.907s5.948-4.325 5.948-4.325h0.204c0 0.002 0-0.029 0-0.688 0-0.423-1.42-1.955-1.42-1.955l-0.021-0.927h4.010l-0.027 0.962c0 0-1.539 1.531-1.539 1.982 0 0.436 0 0.582 0 0.625h0.317c0 0 5.948 0.090 5.948 4.325s-0.336 10.489 2.219 12.909 2.084 3.428 2.084 3.428zM18.512 28.070c0 1.385-1.122 2.883-2.506 2.883s-2.506-1.498-2.506-2.883c0 0.031 5.012-0.032 5.012 0z"></path>
</symbol>
<symbol id="icon-alarm-cancel" viewBox="0 0 32 32">
<path d="M27.792 25.278l0.001 1.825h-20.87l16.557-16.558c-0.030 4.079-0.021 9.176 2.228 11.305 2.555 2.42 2.084 3.428 2.084 3.428zM4.174 26.98l21.265-21.264 0.708 0.709-21.264 21.264-0.709-0.709zM7.852 21.85c2.555-2.42 2.219-8.672 2.219-12.908s5.948-4.325 5.948-4.325h0.203c0 0.002 0-0.029 0-0.688 0-0.423-1.42-1.955-1.42-1.955l-0.021-0.927h4.010l-0.028 0.962c0 0-1.538 1.531-1.538 1.982 0 0.436 0 0.582 0 0.625h0.317c0 0 3.801 0.064 5.323 2.255l-15.909 15.91c0.249-0.285 0.536-0.591 0.896-0.931zM19.292 28.070c0 1.385-1.122 2.883-2.506 2.883s-2.507-1.498-2.507-2.883c0 0.031 5.013-0.032 5.013 0z"></path>
</symbol>
<symbol id="icon-cancel" viewBox="0 0 32 32">
<path d="M16 29c-7.18 0-13-5.82-13-13s5.82-13 13-13 13 5.82 13 13-5.82 13-13 13zM21.961 12.209c0.244-0.244 0.244-0.641 0-0.885l-1.328-1.327c-0.244-0.244-0.641-0.244-0.885 0l-3.761 3.761-3.761-3.761c-0.244-0.244-0.641-0.244-0.885 0l-1.328 1.327c-0.244 0.244-0.244 0.641 0 0.885l3.762 3.762-3.762 3.76c-0.244 0.244-0.244 0.641 0 0.885l1.328 1.328c0.244 0.244 0.641 0.244 0.885 0l3.761-3.762 3.761 3.762c0.244 0.244 0.641 0.244 0.885 0l1.328-1.328c0.244-0.244 0.244-0.641 0-0.885l-3.762-3.76 3.762-3.762z"></path>
</symbol>
<symbol id="icon-satellite" viewBox="0 0 33 32">
<path d="M0 20.863l11.137 11.137c0 0 2.659-6.311-1.083-10.053-3.701-3.701-10.054-1.084-10.054-1.084zM29.875 21.748l-5.656 5.656 0.707 0.707 5.656-5.656-0.707-0.707zM32.703 23.162l-6.363-6.365c-0.781-0.779-2.049-0.779-2.828 0l-0.558 0.558-1.56-1.56 2.797-2.797c0.781-0.781 0.693-2.136-0.088-2.917l-3.447-3.447c-0.781-0.781-2.047-0.781-2.828 0l-2.543 2.454-1.34-1.34 0.091-0.090c0.781-0.781 0.781-2.048 0-2.829l-6.364-6.365c-0.781-0.781-2.047-0.781-2.829 0l-4.242 4.243c-0.781 0.781-0.781 2.048 0 2.829l6.364 6.364c0.781 0.781 2.047 0.781 2.829 0l1.391-1.391 1.378 1.39-2.559 2.559c-0.781 0.781-0.486 5.128-0.486 5.128l1.723 1.723c0 0 4.346 0.295 5.127-0.486l2.214-2.213 1.56 1.56-0.874 0.874c-0.781 0.781-0.781 2.047 0 2.828l6.365 6.363c0.781 0.781 2.047 0.781 2.828 0l4.242-4.242c0.781-0.784 0.781-2.050 0-2.831zM1.308 3.414l4.243-4.243c0.39-0.391 1.023-0.391 1.414 0l-5.657 5.657c-0.391-0.39-0.391-1.024 0-1.414zM2.015 5.535l5.657-5.657 0.707 0.707-5.657 5.657-0.707-0.707zM3.429 6.949l5.657-5.657 0.707 0.708-5.656 5.656-0.708-0.707zM4.844 8.364l5.656-5.657 0.708 0.707-5.657 5.657-0.707-0.707zM6.258 9.778l5.657-5.657 0.707 0.707-5.657 5.657-0.707-0.707zM9.086 11.192c-0.39 0.391-1.023 0.391-1.414 0l5.657-5.657c0.391 0.391 0.391 1.024 0 1.414l-4.243 4.243zM11.908 16.498l-0.53-0.531 7.31-7.31 0.531 0.53-7.311 7.311zM19.975 21.748l4.244-4.244c0.391-0.389 1.023-0.389 1.414 0l-5.658 5.658c-0.391-0.391-0.391-1.023 0-1.414zM31.996 25.283l-4.242 4.242c-0.391 0.391-1.023 0.391-1.414 0l-4.243-4.243 5.656-5.656-0.707-0.707-5.658 5.656-0.707-0.707 5.658-5.658 5.656 5.658c0.392 0.392 0.392 1.025 0.001 1.415zM31.289 23.162l-5.656 5.656 0.707 0.707 5.656-5.656-0.707-0.707zM28.461 20.334l-5.656 5.656 0.707 0.707 5.656-5.656-0.707-0.707z"></path>
</symbol>
<symbol id="icon-headphones" viewBox="0 0 32 32">
<path d="M24 28v-2h-0.025c0.009-0.166 0.025-0.331 0.025-0.5v-11c0-4.694-3.806-8.5-8.5-8.5s-8.5 3.806-8.5 8.5v11c0 0.169 0.016 0.334 0.025 0.5h-0.025v2c0 0-5-0.084-5-5.5 0-3.072 1.607-4.427 3-5.025v-2.975c0-5.799 4.701-10.5 10.5-10.5s10.5 4.701 10.5 10.5v2.975c1.393 0.599 3 1.953 3 5.025 0 5.416-5 5.5-5 5.5zM9 28h-1v-11h1v11zM23 28h-1v-11h1v11z"></path>
</symbol>
<symbol id="icon-clock" viewBox="0 0 32 32">
<path d="M16 4c-7.732 0-14 6.268-14 14s6.268 14 14 14 14-6.268 14-14-6.268-14-14-14zM16 29.25c-6.213 0-11.25-5.037-11.25-11.25s5.037-11.25 11.25-11.25c6.213 0 11.25 5.037 11.25 11.25s-5.037 11.25-11.25 11.25zM29.212 8.974c0.501-0.877 0.788-1.892 0.788-2.974 0-3.314-2.686-6-6-6-1.932 0-3.65 0.913-4.747 2.331 4.121 0.851 7.663 3.287 9.96 6.643v0zM12.748 2.331c-1.097-1.418-2.816-2.331-4.748-2.331-3.314 0-6 2.686-6 6 0 1.082 0.287 2.098 0.788 2.974 2.297-3.356 5.838-5.792 9.96-6.643z"></path>
<path d="M16 18v-8h-2v10h8v-2z"></path>
</symbol>
<symbol id="icon-eye" viewBox="0 0 32 32">
<path d="M16 6c-6.979 0-13.028 4.064-16 10 2.972 5.936 9.021 10 16 10s13.027-4.064 16-10c-2.972-5.936-9.021-10-16-10zM23.889 11.303c1.88 1.199 3.473 2.805 4.67 4.697-1.197 1.891-2.79 3.498-4.67 4.697-2.362 1.507-5.090 2.303-7.889 2.303s-5.527-0.796-7.889-2.303c-1.88-1.199-3.473-2.805-4.67-4.697 1.197-1.891 2.79-3.498 4.67-4.697 0.122-0.078 0.246-0.154 0.371-0.228-0.311 0.854-0.482 1.776-0.482 2.737 0 4.418 3.582 8 8 8s8-3.582 8-8c0-0.962-0.17-1.883-0.482-2.737 0.124 0.074 0.248 0.15 0.371 0.228v0zM16 13c0 1.657-1.343 3-3 3s-3-1.343-3-3 1.343-3 3-3 3 1.343 3 3z"></path>
</symbol>
<symbol id="icon-audio" viewBox="0 0 32 32">
<path d="M9 18h-2v14h2c0.55 0 1-0.45 1-1v-12c0-0.55-0.45-1-1-1z"></path>
<path d="M23 18c-0.55 0-1 0.45-1 1v12c0 0.55 0.45 1 1 1h2v-14h-2z"></path>
<path d="M32 16c0-8.837-7.163-16-16-16s-16 7.163-16 16c0 1.919 0.338 3.759 0.958 5.464-0.609 1.038-0.958 2.246-0.958 3.536 0 3.526 2.608 6.443 6 6.929v-13.857c-0.997 0.143-1.927 0.495-2.742 1.012-0.168-0.835-0.258-1.699-0.258-2.584 0-7.18 5.82-13 13-13s13 5.82 13 13c0 0.885-0.088 1.749-0.257 2.584-0.816-0.517-1.745-0.87-2.743-1.013v13.858c3.392-0.485 6-3.402 6-6.929 0-1.29-0.349-2.498-0.958-3.536 0.62-1.705 0.958-3.545 0.958-5.465z"></path>
</symbol>
</defs>
</svg>
